<svg version="1.1" viewBox="0.0 0.0 960.0 540.0" fill="none" stroke="none" stroke-linecap="square" stroke-miterlimit="10" xmlns:xlink="http://www.w3.org/1999/xlink" xmlns="http://www.w3.org/2000/svg"><clipPath id="g1ba274efb7d_0_2.0"><path d="m0 0l960.0 0l0 540.0l-960.0 0l0 -540.0z" clip-rule="nonzero"/></clipPath><g clip-path="url(#g1ba274efb7d_0_2.0)"><path fill="#00a8e1" d="m0 0l960.0 0l0 540.0l-960.0 0z" fill-rule="evenodd"/><path fill="#000000" fill-opacity="0.0" d="m63.51181 127.41207l832.9763 0l0 235.93701l-832.9763 0z" fill-rule="evenodd"/><path fill="#242f3e" d="m292.4027 163.52457l0 39.28125q0 6.40625 -3.28125 8.8125q-3.28125 2.390625 -12.234375 2.390625l-5.84375 0l-0.890625 -11.84375l4.0 0q0.890625 0 1.171875 -0.3125q0.28125 -0.328125 0.28125 -1.046875l0 -37.28125l16.796875 0zm4.7206116 30.375q0 -10.53125 4.671875 -15.25q4.6875 -4.71875 14.640625 -4.71875q9.96875 0 14.515625 4.640625q4.5625 4.640625 4.5625 15.25q0 10.59375 -4.4375 15.390625q-4.4375 4.796875 -14.5625 4.796875q-10.109375 0 -14.75 -4.796875q-4.640625 -4.796875 -4.640625 -15.3125zm21.390625 -6.796875q-0.4375 -1.40625 -2.125 -1.40625q-1.671875 0 -2.109375 1.40625q-0.4375 1.390625 -0.4375 5.953125l0 1.921875q0 5.109375 0.4375 6.59375q0.4375 1.484375 2.109375 1.484375q1.6875 0 2.125 -1.484375q0.453125 -1.484375 0.453125 -6.203125l0 -2.234375q0 -4.640625 -0.453125 -6.03125zm31.971802 26.90625q-11.359375 0 -11.359375 -10.875l0 -28.234375l16.796875 0l0 25.109375q0 1.28125 1.15625 1.28125q1.15625 0 3.078125 -0.796875l0 -25.59375l16.71875 0l0 38.15625l-16.0 0l0 -2.0l-0.46875 0q-4.640625 2.953125 -9.921875 2.953125zm48.401245 -22.234375l0 21.4375l-16.484375 0l0 -38.3125l14.234375 0l0.484375 2.546875l0.3125 0q1.921875 -1.75 4.40625 -2.421875q2.484375 -0.6875 7.28125 -0.6875l-0.484375 13.28125l-5.4375 0q-2.40625 0 -3.359375 0.875q-0.953125 0.875 -0.953125 3.28125zm40.14621 -17.84375q11.203125 0 11.203125 10.875l0 28.40625l-16.875 0l0 -24.796875q0 -1.28125 -1.328125 -1.28125q-1.3125 0 -2.90625 0.796875l0 25.28125l-16.640625 0l0 -38.3125l15.109375 0l0.484375 2.46875q5.046875 -3.4375 10.953125 -3.4375zm34.247467 12.875q-1.6875 0 -2.328125 1.046875q-0.625 1.046875 -0.625 3.203125l5.75 0l0 -1.28125q0 -2.96875 -2.796875 -2.96875zm-19.4375 7.125q0 -9.515625 5.0 -14.75q5.0 -5.25 14.71875 -5.25q9.71875 0 13.75 4.0q4.046875 4.0 4.046875 11.4375q0 2.96875 -0.640625 8.96875l-20.078125 0q0.3125 4.3125 5.28125 4.3125q2.3125 0 12.15625 -1.671875l1.359375 10.796875q-8.484375 2.234375 -15.84375 2.234375q-9.59375 0 -14.671875 -5.28125q-5.078125 -5.28125 -5.078125 -14.796875zm59.517487 1.6875q3.671875 -20.25 3.765625 -20.71875l16.46875 0l-11.109375 38.953125q-1.6875 5.921875 -5.171875 8.109375q-3.46875 2.203125 -11.3906555 2.203125l-9.609375 0l-1.828125 -11.4375l6.390625 0q2.078125 0 2.078125 -1.359375q0 -0.875 -0.390625 -2.234375l-10.484375 -34.234375l17.59375 0l3.3594055 20.71875l0.328125 0zm92.08057 17.59375l-15.125 0l0 -23.6875l-0.390625 0l-4.71875 23.6875l-14.0 0l-4.640625 -23.6875l-0.40625 0l0 23.6875l-14.953125 0l1.90625 -49.6875l21.28125 0l3.765625 22.484375l0.71875 0l3.6875 -22.484375l21.03125 0l1.84375 49.6875zm39.27307 -28.0l-0.46875 16.0q0 1.125 0.828125 1.484375q0.84375 0.359375 3.0 0.359375l-1.515625 10.640625q-4.796875 0.3125 -6.484375 0.3125q-5.828125 0 -8.46875 -3.109375l-0.5625 0q-3.84375 3.109375 -9.640625 3.109375q-5.796875 0 -8.796875 -3.078125q-3.0 -3.078125 -3.0 -8.515625q0 -6.71875 4.515625 -9.359375q4.515625 -2.640625 14.359375 -3.359375l0 -1.4375q0 -1.453125 -1.515625 -1.453125q-4.078125 0 -14.0 2.484375l-2.484375 -12.640625q11.4375 -2.71875 19.671875 -2.71875q8.25 0 11.40625 2.71875q3.15625 2.71875 3.15625 8.5625zm-18.078125 18.484375q2.328125 0 2.328125 -2.40625l0 -3.03125q-4.171875 0.546875 -4.171875 3.1875q0 2.25 1.84375 2.25zm46.716858 10.3125q-2.953125 0 -5.90625 -1.109375l0 11.265625l-16.640625 0l0 -49.265625l13.75 0l0.640625 1.75q3.765625 -2.71875 9.046875 -2.71875q8.640625 0 11.671875 4.4375q3.046875 4.4375 3.046875 15.125q0 10.671875 -3.28125 15.59375q-3.28125 4.921875 -12.328125 4.921875zm-3.515625 -11.359375q1.6875 0 2.078125 -1.796875q0.40625 -1.796875 0.40625 -6.3125q0 -4.53125 -0.484375 -6.40625q-0.484375 -1.875 -2.078125 -1.875q-1.046875 0 -2.484375 0.640625l0 15.4375q1.4375 0.3125 2.5625 0.3125z" fill-rule="nonzero"/><path fill="#242f3e" d="m352.12137 257.61832l12.484375 3.828125q-9.453125 12.5625 -9.453125 27.015625q0 14.4375 9.453125 29.390625l-12.96875 3.125q-7.28125 -7.125 -11.078125 -14.4375q-3.796875 -7.328125 -3.796875 -17.484375q0 -10.15625 3.75 -17.59375q3.765625 -7.453125 11.609375 -13.84375zm71.03998 51.59375l-15.125 0l0 -23.6875l-0.390625 0l-4.71875 23.6875l-14.0 0l-4.640625 -23.6875l-0.40625 0l0 23.6875l-14.953125 0l1.90625 -49.6875l21.28125 0l3.765625 22.484375l0.71875 0l3.6875 -22.484375l21.03125 0l1.84375 49.6875zm4.2418213 -19.3125q0 -10.53125 4.671875 -15.25q4.6875 -4.71875 14.640625 -4.71875q9.96875 0 14.515625 4.640625q4.5625 4.640625 4.5625 15.25q0 10.59375 -4.4375 15.390625q-4.4375 4.796875 -14.5625 4.796875q-10.109375 0 -14.75 -4.796875q-4.640625 -4.796875 -4.640625 -15.3125zm21.390625 -6.796875q-0.4375 -1.40625 -2.125 -1.40625q-1.671875 0 -2.109375 1.40625q-0.4375 1.390625 -0.4375 5.953125l0 1.921875q0 5.109375 0.4375 6.59375q0.4375 1.484375 2.109375 1.484375q1.6875 0 2.125 -1.484375q0.453125 -1.484375 0.453125 -6.203125l0 -2.234375q0 -4.640625 -0.453125 -6.03125zm58.768707 6.03125q0 5.28125 -0.609375 8.84375q-0.59375 3.546875 -2.1875 6.4375q-3.125 5.59375 -12.40625 5.59375q-5.765625 0 -9.203125 -2.484375l-0.640625 1.6875l-13.109375 0l0 -51.28125l16.078125 0l0 13.59375q3.359375 -1.59375 7.359375 -1.59375q8.875 0 11.796875 4.4375q2.921875 4.4375 2.921875 14.765625zm-19.125 9.515625q1.6875 0 2.078125 -1.796875q0.40625 -1.796875 0.40625 -6.3125q0 -4.53125 -0.484375 -6.40625q-0.484375 -1.875 -2.078125 -1.875q-1.046875 0 -2.484375 0.640625l0 15.4375q1.4375 0.3125 2.5625 0.3125zm39.91626 10.5625l-16.640656 0l0 -37.515625l16.640656 0l0 37.515625zm-16.953156 -45.59375q0 -6.8125 8.5625305 -6.8125q8.5625 0 8.5625 6.8125q0 3.515625 -2.125 5.03125q-2.125 1.515625 -6.453125 1.515625q-4.3125 0 -6.4375 -1.46875q-2.1094055 -1.484375 -2.1094055 -5.078125zm22.321869 35.671875l0 -41.359375l16.390625 0l0 37.6875q0 2.15625 2.96875 2.15625l-1.203125 12.234375l-6.5625 0q-11.59375 0 -11.59375 -10.71875zm40.95807 -16.484375q-1.6875 0 -2.328125 1.046875q-0.625 1.046875 -0.625 3.203125l5.75 0l0 -1.28125q0 -2.96875 -2.796875 -2.96875zm-19.4375 7.125q0 -9.515625 5.0 -14.75q5.0 -5.25 14.71875 -5.25q9.71875 0 13.75 4.0q4.046875 4.0 4.046875 11.4375q0 2.96875 -0.640625 8.96875l-20.078125 0q0.3125 4.3125 5.28125 4.3125q2.3125 0 12.15625 -1.671875l1.359375 10.796875q-8.484375 2.234375 -15.84375 2.234375q-9.59375 0 -14.671875 -5.28125q-5.078125 -5.28125 -5.078125 -14.796875zm52.72058 -32.3125q7.671875 6.390625 11.46875 13.953125q3.8125 7.5625 3.8125 17.453125q0 9.875 -3.890625 17.4375q-3.875 7.546875 -11.078125 14.515625l-12.875 -3.125q9.515625 -13.84375 9.515625 -28.765625q0 -14.921875 -9.515625 -27.5625l12.5625 -3.90625z" fill-rule="nonzero"/><path fill="#000000" fill-opacity="0.0" d="m63.51181 331.7979l832.9763 0l0 80.787384l-832.9763 0z" fill-rule="evenodd"/><path fill="#242f3e" d="m370.1906 351.6429l-3.84375 19.875l-9.8125 0l-4.078125 -19.875l7.40625 0l1.53125 12.1875l0.375 0l1.390625 -12.1875l7.03125 0zm8.164917 19.875l-6.65625 0l0 -15.015625l6.65625 0l0 15.015625zm-6.78125 -18.234375q0 -2.71875 3.421875 -2.71875q3.421875 0 3.421875 2.71875q0 1.40625 -0.859375 2.015625q-0.84375 0.609375 -2.578125 0.609375q-1.71875 0 -2.5625 -0.59375q-0.84375 -0.59375 -0.84375 -2.03125zm21.553772 18.546875q-2.484375 0 -3.421875 -1.234375l-0.125 0q-1.46875 1.234375 -3.484375 1.234375q-3.328125 0 -4.734375 -2.109375q-1.40625 -2.109375 -1.40625 -5.96875q0 -3.875 1.546875 -5.90625q1.546875 -2.046875 4.46875 -2.046875q1.65625 0 2.6875 0.515625l0 -5.3125l6.421875 0l0 15.71875q0 0.40625 0.296875 0.578125q0.3125 0.15625 1.078125 0.15625l-0.5625 4.25q-1.671875 0.125 -2.765625 0.125zm-5.5 -11.15625q-0.640625 0 -0.8125 0.734375q-0.171875 0.734375 -0.171875 2.5625q0 1.8125 0.15625 2.546875q0.15625 0.71875 0.8125 0.71875q0.65625 0 1.046875 -0.140625l0 -6.203125q-0.546875 -0.21875 -1.03125 -0.21875zm17.469788 0.28125q-0.671875 0 -0.921875 0.421875q-0.25 0.40625 -0.25 1.28125l2.296875 0l0 -0.515625q0 -1.1875 -1.125 -1.1875zm-7.765625 2.859375q0 -3.8125 2.0 -5.90625q2.0 -2.109375 5.875 -2.109375q3.890625 0 5.5 1.609375q1.625 1.59375 1.625 4.578125q0 1.171875 -0.25 3.578125l-8.03125 0q0.125 1.734375 2.109375 1.734375q0.921875 0 4.859375 -0.671875l0.546875 4.3125q-3.390625 0.890625 -6.328125 0.890625q-3.84375 0 -5.875 -2.109375q-2.03125 -2.109375 -2.03125 -5.90625zm16.032013 -0.015625q0 -4.21875 1.859375 -6.109375q1.875 -1.890625 5.859375 -1.890625q3.984375 0 5.8125 1.859375q1.828125 1.859375 1.828125 6.109375q0 4.234375 -1.78125 6.15625q-1.78125 1.90625 -5.828125 1.90625q-4.046875 0 -5.90625 -1.90625q-1.84375 -1.921875 -1.84375 -6.125zm8.546875 -2.734375q-0.171875 -0.5625 -0.84375 -0.5625q-0.671875 0 -0.84375 0.5625q-0.171875 0.5625 -0.171875 2.390625l0 0.765625q0 2.046875 0.171875 2.640625q0.171875 0.59375 0.84375 0.59375q0.671875 0 0.84375 -0.59375q0.1875 -0.59375 0.1875 -2.484375l0 -0.890625q0 -1.859375 -0.1875 -2.421875zm22.743835 4.25l-1.375 0l0 6.203125l-6.71875 0l0 -19.875l7.75 0q3.921875 0 5.71875 1.609375q1.796875 1.59375 1.796875 5.28125q0 3.671875 -1.734375 5.234375q-1.71875 1.546875 -5.4375 1.546875zm0.328125 -4.640625q0.28125 -0.515625 0.28125 -1.734375q0 -1.21875 -0.3125 -1.71875q-0.296875 -0.515625 -1.125 -0.515625l-0.671875 0l0 4.46875l0.828125 0q0.734375 0 1.0 -0.5zm14.706268 2.265625l0 8.578125l-6.578125 0l0 -15.328125l5.6875 0l0.1875 1.03125l0.140625 0q0.765625 -0.71875 1.75 -0.984375q1.0 -0.265625 2.921875 -0.265625l-0.203125 5.3125l-2.171875 0q-0.953125 0 -1.34375 0.359375q-0.390625 0.34375 -0.390625 1.296875zm12.736664 -1.984375q-0.671875 0 -0.921875 0.421875q-0.25 0.40625 -0.25 1.28125l2.296875 0l0 -0.515625q0 -1.1875 -1.125 -1.1875zm-7.765625 2.859375q0 -3.8125 2.0 -5.90625q2.0 -2.109375 5.875 -2.109375q3.890625 0 5.5 1.609375q1.625 1.59375 1.625 4.578125q0 1.171875 -0.25 3.578125l-8.03125 0q0.125 1.734375 2.109375 1.734375q0.921875 0 4.859375 -0.671875l0.546875 4.3125q-3.390625 0.890625 -6.328125 0.890625q-3.84375 0 -5.875 -2.109375q-2.03125 -2.109375 -2.03125 -5.90625zm28.250763 2.9375q0 5.078125 -5.921875 5.078125q-3.0625 0 -5.953125 -0.671875l0.421875 -4.703125q4.0 0.96875 5.3125 0.96875q0.453125 0 0.453125 -0.28125q0 -0.296875 -0.515625 -0.484375q-3.296875 -1.125 -4.8125 -2.375q-1.5 -1.25 -1.5 -3.578125q0 -2.34375 1.640625 -3.625q1.65625 -1.28125 4.453125 -1.28125q2.8125 0 6.171875 0.640625l-0.671875 4.84375q-4.234375 -0.84375 -5.125 -0.84375q-0.421875 0 -0.421875 0.328125q0 0.25 0.546875 0.453125q2.65625 0.859375 3.84375 1.703125q1.1875 0.84375 1.625 1.75q0.453125 0.890625 0.453125 2.078125zm8.442902 -5.796875q-0.671875 0 -0.921875 0.421875q-0.25 0.40625 -0.25 1.28125l2.296875 0l0 -0.515625q0 -1.1875 -1.125 -1.1875zm-7.765625 2.859375q0 -3.8125 2.0 -5.90625q2.0 -2.109375 5.875 -2.109375q3.890625 0 5.5 1.609375q1.625 1.59375 1.625 4.578125q0 1.171875 -0.25 3.578125l-8.03125 0q0.125 1.734375 2.109375 1.734375q0.921875 0 4.859375 -0.671875l0.546875 4.3125q-3.390625 0.890625 -6.328125 0.890625q-3.84375 0 -5.875 -2.109375q-2.03125 -2.109375 -2.03125 -5.90625zm27.125824 -8.015625q4.484375 0 4.484375 4.359375l0 11.359375l-6.75 0l0 -9.921875q0 -0.515625 -0.53125 -0.515625q-0.53125 0 -1.171875 0.328125l0 10.109375l-6.6562805 0l0 -15.328125l6.0625305 0l0.1875 0.984375q2.015625 -1.375 4.375 -1.375zm12.008362 16.03125q-2.5 0 -3.671875 -0.9375q-1.15625 -0.9375 -1.15625 -3.25l0 -6.9375l-1.703125 0l0 -4.328125l2.015625 0l0.421875 -2.84375l5.921875 0l0 2.84375l2.90625 0l0 4.328125l-2.9375 0l0 5.921875q0 0.40625 0.375 0.40625q0.03125 0 2.53125 -0.125l-0.1875 4.609375q-3.203125 0.3125 -4.515625 0.3125zm19.649536 -11.515625l-0.203125 6.40625q0 0.4375 0.328125 0.59375q0.34375 0.140625 1.21875 0.140625l-0.609375 4.25q-1.921875 0.125 -2.59375 0.125q-2.34375 0 -3.390625 -1.234375l-0.21875 0q-1.546875 1.234375 -3.875 1.234375q-2.3125 0 -3.515625 -1.21875q-1.1875 -1.234375 -1.1875 -3.40625q0 -2.703125 1.796875 -3.75q1.8125 -1.0625 5.75 -1.34375l0 -0.578125q0 -0.578125 -0.609375 -0.578125q-1.625 0 -5.59375 1.0l-1.0 -5.0625q4.578125 -1.09375 7.875 -1.09375q3.296875 0 4.5625 1.09375q1.265625 1.09375 1.265625 3.421875zm-7.234375 7.390625q0.921875 0 0.921875 -0.953125l0 -1.21875q-1.65625 0.21875 -1.65625 1.28125q0 0.890625 0.734375 0.890625zm15.264893 4.125q-2.5 0 -3.671875 -0.9375q-1.15625 -0.9375 -1.15625 -3.25l0 -6.9375l-1.703125 0l0 -4.328125l2.015625 0l0.421875 -2.84375l5.921875 0l0 2.84375l2.90625 0l0 4.328125l-2.9375 0l0 5.921875q0 0.40625 0.375 0.40625q0.03125 0 2.53125 -0.125l-0.1875 4.609375q-3.203125 0.3125 -4.515625 0.3125zm12.993286 -0.3125l-6.65625 0l0 -15.015625l6.65625 0l0 15.015625zm-6.78125 -18.234375q0 -2.71875 3.421875 -2.71875q3.421875 0 3.421875 2.71875q0 1.40625 -0.859375 2.015625q-0.84375 0.609375 -2.578125 0.609375q-1.71875 0 -2.5625 -0.59375q-0.84375 -0.59375 -0.84375 -2.03125zm8.381897 10.515625q0 -4.21875 1.859375 -6.109375q1.875 -1.890625 5.859375 -1.890625q3.984375 0 5.8125 1.859375q1.828125 1.859375 1.828125 6.109375q0 4.234375 -1.78125 6.15625q-1.78125 1.90625 -5.828125 1.90625q-4.046875 0 -5.90625 -1.90625q-1.84375 -1.921875 -1.84375 -6.125zm8.546875 -2.734375q-0.171875 -0.5625 -0.84375 -0.5625q-0.671875 0 -0.84375 0.5625q-0.171875 0.5625 -0.171875 2.390625l0 0.765625q0 2.046875 0.171875 2.640625q0.171875 0.59375 0.84375 0.59375q0.671875 0 0.84375 -0.59375q0.1875 -0.59375 0.1875 -2.484375l0 -0.890625q0 -1.859375 -0.1875 -2.421875zm18.866943 -5.265625q4.484375 0 4.484375 4.359375l0 11.359375l-6.75 0l0 -9.921875q0 -0.515625 -0.53125 -0.515625q-0.53125 0 -1.171875 0.328125l0 10.109375l-6.65625 0l0 -15.328125l6.0625 0l0.1875 0.984375q2.015625 -1.375 4.375 -1.375z" fill-rule="nonzero"/></g></svg>