<svg version="1.1" viewBox="0.0 0.0 960.0 540.0" fill="none" stroke="none" stroke-linecap="square" stroke-miterlimit="10" xmlns:xlink="http://www.w3.org/1999/xlink" xmlns="http://www.w3.org/2000/svg"><clipPath id="p.0"><path d="m0 0l960.0 0l0 540.0l-960.0 0l0 -540.0z" clip-rule="nonzero"/></clipPath><g clip-path="url(#p.0)"><path fill="#00a8e1" d="m0 0l960.0 0l0 540.0l-960.0 0z" fill-rule="evenodd"/><path fill="#000000" fill-opacity="0.0" d="m63.51181 178.86613l832.9763 0l0 138.96065l-832.9763 0z" fill-rule="evenodd"/><path fill="#242f3e" d="m133.95786 249.15051l-3.4375 0l0 15.515625l-16.796875 0l0 -49.6875l19.359375 0q9.84375 0 14.3125 4.0q4.484375 4.0 4.484375 13.203125q0 9.203125 -4.328125 13.09375q-4.3125 3.875 -13.59375 3.875zm0.828125 -11.609375q0.6875 -1.28125 0.6875 -4.3125q0 -3.046875 -0.765625 -4.328125q-0.75 -1.28125 -2.828125 -1.28125l-1.671875 0l0 11.203125l2.078125 0q1.828125 0 2.5 -1.28125zm37.32808 27.125l-16.640625 0l0 -37.515625l16.640625 0l0 37.515625zm-16.953125 -45.59375q0 -6.8125 8.5625 -6.8125q8.5625 0 8.5625 6.8125q0 3.515625 -2.125 5.03125q-2.125 1.515625 -6.453125 1.515625q-4.3125 0 -6.4375 -1.46875q-2.109375 -1.484375 -2.109375 -5.078125zm36.165604 46.390625q-6.25 0 -9.171875 -2.359375q-2.921875 -2.359375 -2.921875 -8.125l0 -17.359375l-4.234375 0l0 -10.796875l5.046875 0l1.03125 -7.109375l14.796875 0l0 7.109375l7.28125 0l0 10.796875l-7.359375 0l0 14.8125q0 1.03125 0.96875 1.03125q0.078125 0 6.3125 -0.3125l-0.46875 11.515625q-8.0 0.796875 -11.28125 0.796875zm34.358093 -27.515625q-2.203125 0 -2.890625 1.921875q-0.671875 1.921875 -0.671875 5.921875q0 4.0 0.640625 5.796875q0.640625 1.796875 3.03125 1.796875q2.40625 0 7.609375 -1.03125l1.75 11.109375q-7.03125 2.0 -11.828125 2.0q-8.890625 0 -13.40625 -5.109375q-4.515625 -5.125 -4.515625 -14.328125q0 -9.203125 4.640625 -14.921875q4.640625 -5.71875 13.515625 -5.71875q6.484375 0 12.234375 2.15625l-1.671875 12.640625q-6.234375 -2.234375 -8.4375 -2.234375zm39.556854 -12.5625q10.875 0 10.875 10.078125l0 29.203125l-16.875 0l0 -24.796875q0 -1.28125 -1.328125 -1.28125q-1.3125 0 -2.9062653 0.796875l0 25.28125l-16.640625 0l0 -51.28125l16.078125 0l0 15.359375q4.8750153 -3.359375 10.79689 -3.359375zm33.432465 39.28125l-16.640625 0l0 -37.515625l16.640625 0l0 37.515625zm-16.953125 -45.59375q0 -6.8125 8.5625 -6.8125q8.5625 0 8.5625 6.8125q0 3.515625 -2.125 5.03125q-2.125 1.515625 -6.453125 1.515625q-4.3125 0 -6.4375 -1.46875q-2.109375 -1.484375 -2.109375 -5.078125zm48.712463 6.3125q11.203125 0 11.203125 10.875l0 28.40625l-16.875 0l0 -24.796875q0 -1.28125 -1.328125 -1.28125q-1.3125 0 -2.90625 0.796875l0 25.28125l-16.640625 0l0 -38.3125l15.109375 0l0.484375 2.46875q5.046875 -3.4375 10.953125 -3.4375zm32.888092 0l21.765625 0l0 9.765625l-5.921875 0l0 0.3125q2.46875 1.921875 2.46875 5.6875q0 12.5625 -16.15625 12.5625l-5.03125 0q-0.640625 0 -0.640625 0.71875q0 0.71875 0.640625 0.71875l12.71875 0q10.234375 0 10.234375 8.3125q0 12.96875 -20.234375 12.96875q-8.171875 0 -12.65625 -1.84375q-4.46875 -1.84375 -4.46875 -6.640625q0 -2.640625 2.796875 -3.921875l0 -0.3125q-3.671875 -1.921875 -3.671875 -6.40625q0 -4.484375 6.078125 -6.953125q-5.609375 -4.0 -5.609375 -11.078125q0 -7.09375 4.640625 -10.484375q4.640625 -3.40625 13.046875 -3.40625zm0.71875 12.234375q-2.078125 0 -2.078125 4.0q0 4.0 2.234375 4.0q2.078125 0 2.078125 -3.90625q0 -2.171875 -0.484375 -3.125q-0.46875 -0.96875 -1.75 -0.96875zm-4.234375 29.359375l9.109375 0q0.71875 0 0.71875 -0.546875l0 -0.484375q0 -0.5625 -0.71875 -0.5625l-9.109375 0q-0.5625 0 -0.5625 0.5625l0 0.484375q0 0.546875 0.5625 0.546875zm56.880585 -1.515625q-6.25 0 -9.171875 -2.359375q-2.921875 -2.359375 -2.921875 -8.125l0 -17.359375l-4.234375 0l0 -10.796875l5.046875 0l1.03125 -7.109375l14.796875 0l0 7.109375l7.28125 0l0 10.796875l-7.359375 0l0 14.8125q0 1.03125 0.96875 1.03125q0.078125 0 6.3125 -0.3125l-0.46875 11.515625q-8.0 0.796875 -11.28125 0.796875zm14.076843 -20.109375q0 -10.53125 4.671875 -15.25q4.6875 -4.71875 14.640625 -4.71875q9.96875 0 14.515625 4.640625q4.5625 4.640625 4.5625 15.25q0 10.59375 -4.4375 15.390625q-4.4375 4.796875 -14.5625 4.796875q-10.109375 0 -14.75 -4.796875q-4.640625 -4.796875 -4.640625 -15.3125zm21.390625 -6.796875q-0.4375 -1.40625 -2.125 -1.40625q-1.671875 0 -2.109375 1.40625q-0.4375 1.390625 -0.4375 5.953125l0 1.921875q0 5.109375 0.4375 6.59375q0.4375 1.484375 2.109375 1.484375q1.6875 0 2.125 -1.484375q0.453125 -1.484375 0.453125 -6.203125l0 -2.234375q0 -4.640625 -0.453125 -6.03125zm34.99994 0.953125q0 -13.328125 5.3125 -19.328125q5.328125 -6.0 17.53125 -6.0q12.203125 0 17.4375 5.921875q5.25 5.921875 5.25 19.25q0 13.3125 -5.40625 19.71875q-5.40625 6.390625 -17.453125 6.390625q-12.03125 0 -17.359375 -6.3125q-5.3125 -6.328125 -5.3125 -19.640625zm27.28125 -9.515625q-1.03125 -2.046875 -4.484375 -2.046875q-3.4375 0 -4.390625 2.0q-0.953125 2.0 -0.953125 8.5625l0 3.515625q0 6.71875 1.03125 8.71875q1.046875 2.0 4.5625 2.0q3.515625 0 4.390625 -1.921875q0.890625 -1.921875 0.890625 -8.5625l0 -3.671875q0 -6.5625 -1.046875 -8.59375zm33.610596 35.46875q-11.359375 0 -11.359375 -10.875l0 -28.234375l16.796875 0l0 25.109375q0 1.28125 1.15625 1.28125q1.15625 0 3.078125 -0.796875l0 -25.59375l16.71875 0l0 38.15625l-16.0 0l0 -2.0l-0.46875 0q-4.640625 2.953125 -9.921875 2.953125zm48.401184 -22.234375l0 21.4375l-16.484375 0l0 -38.3125l14.234375 0l0.484375 2.546875l0.3125 0q1.921875 -1.75 4.40625 -2.421875q2.484375 -0.6875 7.28125 -0.6875l-0.484375 13.28125l-5.4375 0q-2.40625 0 -3.359375 0.875q-0.953125 0.875 -0.953125 3.28125zm45.268066 -2.796875q0 6.078125 1.359375 8.84375q1.359375 2.75 4.5625 2.75q3.203125 0 10.640625 -1.765625l2.5625 12.71875q-7.84375 2.484375 -15.125 2.484375q-11.109375 0 -16.203125 -6.359375q-5.078125 -6.359375 -5.078125 -18.953125q0 -12.609375 5.28125 -19.28125q5.28125 -6.6875 17.203125 -6.6875q6.96875 0 13.921875 2.71875l-2.640625 14.25q-7.921875 -2.328125 -10.84375 -2.328125q-2.921875 0 -4.28125 2.765625q-1.359375 2.765625 -1.359375 8.84375zm20.887451 14.3125l0 -41.359375l16.390625 0l0 37.6875q0 2.15625 2.96875 2.15625l-1.203125 12.234375l-6.5625 0q-11.59375 0 -11.59375 -10.71875zm39.911255 9.921875l-16.640625 0l0 -37.515625l16.640625 0l0 37.515625zm-16.953125 -45.59375q0 -6.8125 8.5625 -6.8125q8.5625 0 8.5625 6.8125q0 3.515625 -2.125 5.03125q-2.125 1.515625 -6.453125 1.515625q-4.3125 0 -6.4375 -1.46875q-2.109375 -1.484375 -2.109375 -5.078125zm40.399963 19.1875q-1.6875 0 -2.328125 1.046875q-0.625 1.046875 -0.625 3.203125l5.75 0l0 -1.28125q0 -2.96875 -2.796875 -2.96875zm-19.4375 7.125q0 -9.515625 5.0 -14.75q5.0 -5.25 14.71875 -5.25q9.71875 0 13.75 4.0q4.046875 4.0 4.046875 11.4375q0 2.96875 -0.640625 8.96875l-20.078125 0q0.3125 4.3125 5.28125 4.3125q2.3125 0 12.15625 -1.671875l1.359375 10.796875q-8.484375 2.234375 -15.84375 2.234375q-9.59375 0 -14.671875 -5.28125q-5.078125 -5.28125 -5.078125 -14.796875zm67.829956 -20.0q11.203125 0 11.203125 10.875l0 28.40625l-16.875 0l0 -24.796875q0 -1.28125 -1.328125 -1.28125q-1.3125 0 -2.90625 0.796875l0 25.28125l-16.640625 0l0 -38.3125l15.109375 0l0.484375 2.46875q5.046875 -3.4375 10.953125 -3.4375zm30.013123 40.078125q-6.25 0 -9.171875 -2.359375q-2.921875 -2.359375 -2.921875 -8.125l0 -17.359375l-4.234375 0l0 -10.796875l5.046875 0l1.03125 -7.109375l14.796875 0l0 7.109375l7.28125 0l0 10.796875l-7.359375 0l0 14.8125q0 1.03125 0.96875 1.03125q0.078125 0 6.3125 -0.3125l-0.46875 11.515625q-8.0 0.796875 -11.28125 0.796875zm44.639343 -12.71875q0 12.71875 -14.8125 12.71875q-7.671875 0 -14.875 -1.671875l1.046875 -11.765625q10.0 2.40625 13.28125 2.40625q1.109375 0 1.109375 -0.71875q0 -0.734375 -1.28125 -1.203125q-8.234375 -2.796875 -12.0 -5.921875q-3.75 -3.125 -3.75 -8.953125q0 -5.84375 4.109375 -9.046875q4.125 -3.203125 11.125 -3.203125q7.0 0 15.40625 1.59375l-1.6875 12.09375q-10.5625 -2.09375 -12.796875 -2.09375q-1.046875 0 -1.046875 0.8125q0 0.640625 1.359375 1.109375q6.640625 2.171875 9.59375 4.296875q2.96875 2.109375 4.09375 4.359375q1.125 2.234375 1.125 5.1875z" fill-rule="nonzero"/><path fill="#000000" fill-opacity="0.0" d="m63.51181 280.34647l832.9763 0l0 80.787384l-832.9763 0z" fill-rule="evenodd"/><path fill="#242f3e" d="m370.1906 300.19147l-3.84375 19.875l-9.8125 0l-4.078125 -19.875l7.40625 0l1.53125 12.1875l0.375 0l1.390625 -12.1875l7.03125 0zm8.164917 19.875l-6.65625 0l0 -15.015625l6.65625 0l0 15.015625zm-6.78125 -18.234375q0 -2.71875 3.421875 -2.71875q3.421875 0 3.421875 2.71875q0 1.40625 -0.859375 2.015625q-0.84375 0.609375 -2.578125 0.609375q-1.71875 0 -2.5625 -0.59375q-0.84375 -0.59375 -0.84375 -2.03125zm21.553772 18.546875q-2.484375 0 -3.421875 -1.234375l-0.125 0q-1.46875 1.234375 -3.484375 1.234375q-3.328125 0 -4.734375 -2.109375q-1.40625 -2.109375 -1.40625 -5.96875q0 -3.875 1.546875 -5.90625q1.546875 -2.046875 4.46875 -2.046875q1.65625 0 2.6875 0.515625l0 -5.3125l6.421875 0l0 15.71875q0 0.40625 0.296875 0.578125q0.3125 0.15625 1.078125 0.15625l-0.5625 4.25q-1.671875 0.125 -2.765625 0.125zm-5.5 -11.15625q-0.640625 0 -0.8125 0.734375q-0.171875 0.734375 -0.171875 2.5625q0 1.8125 0.15625 2.546875q0.15625 0.71875 0.8125 0.71875q0.65625 0 1.046875 -0.140625l0 -6.203125q-0.546875 -0.21875 -1.03125 -0.21875zm17.469788 0.28125q-0.671875 0 -0.921875 0.421875q-0.25 0.40625 -0.25 1.28125l2.296875 0l0 -0.515625q0 -1.1875 -1.125 -1.1875zm-7.765625 2.859375q0 -3.8125 2.0 -5.90625q2.0 -2.109375 5.875 -2.109375q3.890625 0 5.5 1.609375q1.625 1.59375 1.625 4.578125q0 1.171875 -0.25 3.578125l-8.03125 0q0.125 1.734375 2.109375 1.734375q0.921875 0 4.859375 -0.671875l0.546875 4.3125q-3.390625 0.890625 -6.328125 0.890625q-3.84375 0 -5.875 -2.109375q-2.03125 -2.109375 -2.03125 -5.90625zm16.032013 -0.015625q0 -4.21875 1.859375 -6.109375q1.875 -1.890625 5.859375 -1.890625q3.984375 0 5.8125 1.859375q1.828125 1.859375 1.828125 6.109375q0 4.234375 -1.78125 6.15625q-1.78125 1.90625 -5.828125 1.90625q-4.046875 0 -5.90625 -1.90625q-1.84375 -1.921875 -1.84375 -6.125zm8.546875 -2.734375q-0.171875 -0.5625 -0.84375 -0.5625q-0.671875 0 -0.84375 0.5625q-0.171875 0.5625 -0.171875 2.390625l0 0.765625q0 2.046875 0.171875 2.640625q0.171875 0.59375 0.84375 0.59375q0.671875 0 0.84375 -0.59375q0.1875 -0.59375 0.1875 -2.484375l0 -0.890625q0 -1.859375 -0.1875 -2.421875zm22.743835 4.25l-1.375 0l0 6.203125l-6.71875 0l0 -19.875l7.75 0q3.921875 0 5.71875 1.609375q1.796875 1.59375 1.796875 5.28125q0 3.671875 -1.734375 5.234375q-1.71875 1.546875 -5.4375 1.546875zm0.328125 -4.640625q0.28125 -0.515625 0.28125 -1.734375q0 -1.21875 -0.3125 -1.71875q-0.296875 -0.515625 -1.125 -0.515625l-0.671875 0l0 4.46875l0.828125 0q0.734375 0 1.0 -0.5zm14.706268 2.265625l0 8.578125l-6.578125 0l0 -15.328125l5.6875 0l0.1875 1.03125l0.140625 0q0.765625 -0.71875 1.75 -0.984375q1.0 -0.265625 2.921875 -0.265625l-0.203125 5.3125l-2.171875 0q-0.953125 0 -1.34375 0.359375q-0.390625 0.34375 -0.390625 1.296875zm12.736664 -1.984375q-0.671875 0 -0.921875 0.421875q-0.25 0.40625 -0.25 1.28125l2.296875 0l0 -0.515625q0 -1.1875 -1.125 -1.1875zm-7.765625 2.859375q0 -3.8125 2.0 -5.90625q2.0 -2.109375 5.875 -2.109375q3.890625 0 5.5 1.609375q1.625 1.59375 1.625 4.578125q0 1.171875 -0.25 3.578125l-8.03125 0q0.125 1.734375 2.109375 1.734375q0.921875 0 4.859375 -0.671875l0.546875 4.3125q-3.390625 0.890625 -6.328125 0.890625q-3.84375 0 -5.875 -2.109375q-2.03125 -2.109375 -2.03125 -5.90625zm28.250763 2.9375q0 5.078125 -5.921875 5.078125q-3.0625 0 -5.953125 -0.671875l0.421875 -4.703125q4.0 0.96875 5.3125 0.96875q0.453125 0 0.453125 -0.28125q0 -0.296875 -0.515625 -0.484375q-3.296875 -1.125 -4.8125 -2.375q-1.5 -1.25 -1.5 -3.578125q0 -2.34375 1.640625 -3.625q1.65625 -1.28125 4.453125 -1.28125q2.8125 0 6.171875 0.640625l-0.671875 4.84375q-4.234375 -0.84375 -5.125 -0.84375q-0.421875 0 -0.421875 0.328125q0 0.25 0.546875 0.453125q2.65625 0.859375 3.84375 1.703125q1.1875 0.84375 1.625 1.75q0.453125 0.890625 0.453125 2.078125zm8.442902 -5.796875q-0.671875 0 -0.921875 0.421875q-0.25 0.40625 -0.25 1.28125l2.296875 0l0 -0.515625q0 -1.1875 -1.125 -1.1875zm-7.765625 2.859375q0 -3.8125 2.0 -5.90625q2.0 -2.109375 5.875 -2.109375q3.890625 0 5.5 1.609375q1.625 1.59375 1.625 4.578125q0 1.171875 -0.25 3.578125l-8.03125 0q0.125 1.734375 2.109375 1.734375q0.921875 0 4.859375 -0.671875l0.546875 4.3125q-3.390625 0.890625 -6.328125 0.890625q-3.84375 0 -5.875 -2.109375q-2.03125 -2.109375 -2.03125 -5.90625zm27.125824 -8.015625q4.484375 0 4.484375 4.359375l0 11.359375l-6.75 0l0 -9.921875q0 -0.515625 -0.53125 -0.515625q-0.53125 0 -1.171875 0.328125l0 10.109375l-6.6562805 0l0 -15.328125l6.0625305 0l0.1875 0.984375q2.015625 -1.375 4.375 -1.375zm12.008362 16.03125q-2.5 0 -3.671875 -0.9375q-1.15625 -0.9375 -1.15625 -3.25l0 -6.9375l-1.703125 0l0 -4.328125l2.015625 0l0.421875 -2.84375l5.921875 0l0 2.84375l2.90625 0l0 4.328125l-2.9375 0l0 5.921875q0 0.40625 0.375 0.40625q0.03125 0 2.53125 -0.125l-0.1875 4.609375q-3.203125 0.3125 -4.515625 0.3125zm19.649536 -11.515625l-0.203125 6.40625q0 0.4375 0.328125 0.59375q0.34375 0.140625 1.21875 0.140625l-0.609375 4.25q-1.921875 0.125 -2.59375 0.125q-2.34375 0 -3.390625 -1.234375l-0.21875 0q-1.546875 1.234375 -3.875 1.234375q-2.3125 0 -3.515625 -1.21875q-1.1875 -1.234375 -1.1875 -3.40625q0 -2.703125 1.796875 -3.75q1.8125 -1.0625 5.75 -1.34375l0 -0.578125q0 -0.578125 -0.609375 -0.578125q-1.625 0 -5.59375 1.0l-1.0 -5.0625q4.578125 -1.09375 7.875 -1.09375q3.296875 0 4.5625 1.09375q1.265625 1.09375 1.265625 3.421875zm-7.234375 7.390625q0.921875 0 0.921875 -0.953125l0 -1.21875q-1.65625 0.21875 -1.65625 1.28125q0 0.890625 0.734375 0.890625zm15.264893 4.125q-2.5 0 -3.671875 -0.9375q-1.15625 -0.9375 -1.15625 -3.25l0 -6.9375l-1.703125 0l0 -4.328125l2.015625 0l0.421875 -2.84375l5.921875 0l0 2.84375l2.90625 0l0 4.328125l-2.9375 0l0 5.921875q0 0.40625 0.375 0.40625q0.03125 0 2.53125 -0.125l-0.1875 4.609375q-3.203125 0.3125 -4.515625 0.3125zm12.993286 -0.3125l-6.65625 0l0 -15.015625l6.65625 0l0 15.015625zm-6.78125 -18.234375q0 -2.71875 3.421875 -2.71875q3.421875 0 3.421875 2.71875q0 1.40625 -0.859375 2.015625q-0.84375 0.609375 -2.578125 0.609375q-1.71875 0 -2.5625 -0.59375q-0.84375 -0.59375 -0.84375 -2.03125zm8.381897 10.515625q0 -4.21875 1.859375 -6.109375q1.875 -1.890625 5.859375 -1.890625q3.984375 0 5.8125 1.859375q1.828125 1.859375 1.828125 6.109375q0 4.234375 -1.78125 6.15625q-1.78125 1.90625 -5.828125 1.90625q-4.046875 0 -5.90625 -1.90625q-1.84375 -1.921875 -1.84375 -6.125zm8.546875 -2.734375q-0.171875 -0.5625 -0.84375 -0.5625q-0.671875 0 -0.84375 0.5625q-0.171875 0.5625 -0.171875 2.390625l0 0.765625q0 2.046875 0.171875 2.640625q0.171875 0.59375 0.84375 0.59375q0.671875 0 0.84375 -0.59375q0.1875 -0.59375 0.1875 -2.484375l0 -0.890625q0 -1.859375 -0.1875 -2.421875zm18.866943 -5.265625q4.484375 0 4.484375 4.359375l0 11.359375l-6.75 0l0 -9.921875q0 -0.515625 -0.53125 -0.515625q-0.53125 0 -1.171875 0.328125l0 10.109375l-6.65625 0l0 -15.328125l6.0625 0l0.1875 0.984375q2.015625 -1.375 4.375 -1.375z" fill-rule="nonzero"/></g></svg>